<svg width="200" height="200" viewBox="0 0 200 200" xmlns="http://www.w3.org/2000/svg">
  <defs>
    <linearGradient id="intelGradient" x1="0%" y1="0%" x2="100%" y2="100%">
      <stop offset="0%" style="stop-color:#3a3a3a;stop-opacity:1" />
      <stop offset="100%" style="stop-color:#1a1a1a;stop-opacity:1" />
    </linearGradient>
  </defs>
  
  <!-- Background -->
  <rect width="200" height="200" fill="#0a0a0a" />
  
  <!-- CPU Package -->
  <rect x="50" y="50" width="100" height="100" rx="5" fill="url(#intelGradient)" stroke="#ff6b35" stroke-width="2" />
  
  <!-- CPU Die -->
  <rect x="70" y="70" width="60" height="60" fill="#2a2a2a" stroke="#ff6b35" stroke-width="1" />
  <rect x="80" y="80" width="40" height="40" fill="#0066cc" opacity="0.3" />
  
  <!-- Intel Logo Area -->
  <rect x="85" y="85" width="30" height="30" fill="#2a2a2a" />
  <text x="100" y="95" font-family="Arial, sans-serif" font-size="8" fill="#0066cc" text-anchor="middle" font-weight="bold">Intel</text>
  <text x="100" y="105" font-family="Arial, monospace" font-size="6" fill="#ffffff" text-anchor="middle">Core i7</text>
  <text x="100" y="113" font-family="Arial, monospace" font-size="6" fill="#ffffff" text-anchor="middle">13700K</text>
  
  <!-- LGA Contacts -->
  <g fill="#ffd700" opacity="0.6">
    <!-- Grid of contact points around the edge -->
    <rect x="55" y="55" width="1" height="1" />
    <rect x="58" y="55" width="1" height="1" />
    <rect x="61" y="55" width="1" height="1" />
    <rect x="64" y="55" width="1" height="1" />
    <rect x="67" y="55" width="1" height="1" />
    <rect x="70" y="55" width="1" height="1" />
    <rect x="73" y="55" width="1" height="1" />
    <rect x="76" y="55" width="1" height="1" />
    <rect x="79" y="55" width="1" height="1" />
    <rect x="82" y="55" width="1" height="1" />
    <rect x="85" y="55" width="1" height="1" />
    <rect x="88" y="55" width="1" height="1" />
    <rect x="91" y="55" width="1" height="1" />
    <rect x="94" y="55" width="1" height="1" />
    <rect x="97" y="55" width="1" height="1" />
    <rect x="100" y="55" width="1" height="1" />
    <rect x="103" y="55" width="1" height="1" />
    <rect x="106" y="55" width="1" height="1" />
    <rect x="109" y="55" width="1" height="1" />
    <rect x="112" y="55" width="1" height="1" />
    <rect x="115" y="55" width="1" height="1" />
    <rect x="118" y="55" width="1" height="1" />
    <rect x="121" y="55" width="1" height="1" />
    <rect x="124" y="55" width="1" height="1" />
    <rect x="127" y="55" width="1" height="1" />
    <rect x="130" y="55" width="1" height="1" />
    <rect x="133" y="55" width="1" height="1" />
    <rect x="136" y="55" width="1" height="1" />
    <rect x="139" y="55" width="1" height="1" />
    <rect x="142" y="55" width="1" height="1" />
    <rect x="145" y="55" width="1" height="1" />
  </g>
  
  <!-- Corner alignment markers -->
  <rect x="52" y="52" width="4" height="4" fill="#0066cc" />
  <rect x="144" y="52" width="4" height="4" fill="#0066cc" />
  <rect x="52" y="144" width="4" height="4" fill="#0066cc" />
  <rect x="144" y="144" width="4" height="4" fill="#0066cc" />
  
  <!-- Model Information -->
  <text x="100" y="35" font-family="Arial, sans-serif" font-size="12" fill="#ff6b35" text-anchor="middle" font-weight="bold">Intel Core i7-13700K</text>
  <text x="100" y="175" font-family="Arial, monospace" font-size="10" fill="#ffffff" text-anchor="middle">16-Core / 24-Thread</text>
  <text x="100" y="190" font-family="Arial, monospace" font-size="8" fill="#999999" text-anchor="middle">3.4 GHz Base • 5.4 GHz Boost</text>
</svg>