<?xml version="1.0" encoding="UTF-8"?>
<svg xmlns="http://www.w3.org/2000/svg" width="50" height="50" viewBox="0 0 50 50">
  <!-- Background Circle with Gradient -->
  <defs>
    <linearGradient id="logoGradient" x1="0%" y1="0%" x2="100%" y2="100%">
      <stop offset="0%" style="stop-color:#ff6b35;stop-opacity:1" />
      <stop offset="100%" style="stop-color:#ff4500;stop-opacity:1" />
    </linearGradient>
    <linearGradient id="circuitGradient" x1="0%" y1="0%" x2="100%" y2="100%">
      <stop offset="0%" style="stop-color:#00d4ff;stop-opacity:1" />
      <stop offset="100%" style="stop-color:#0099cc;stop-opacity:1" />
    </linearGradient>
  </defs>

  <!-- Outer Hexagon Frame -->
  <g transform="translate(25, 25)">
    <!-- Hexagon Background -->
    <path d="M -20,-10 L -20,10 L 0,20 L 20,10 L 20,-10 L 0,-20 Z"
          fill="#111"
          stroke="url(#logoGradient)"
          stroke-width="2"/>

    <!-- Circuit Pattern Lines -->
    <path d="M -15,-8 L -15,0 M -10,-12 L -10,-5 M -5,-15 L -5,-8"
          stroke="url(#circuitGradient)"
          stroke-width="1"
          opacity="0.6"/>
    <path d="M 15,-8 L 15,0 M 10,-12 L 10,-5 M 5,-15 L 5,-8"
          stroke="url(#circuitGradient)"
          stroke-width="1"
          opacity="0.6"/>

    <!-- CPU/Processor Icon in Center -->
    <g transform="scale(0.8)">
      <!-- Main CPU Body -->
      <rect x="-10" y="-10" width="20" height="20"
            fill="#222"
            stroke="url(#logoGradient)"
            stroke-width="1.5"
            rx="2"/>

      <!-- CPU Core Pattern -->
      <rect x="-6" y="-6" width="12" height="12"
            fill="url(#logoGradient)"
            opacity="0.8"
            rx="1"/>

      <!-- Inner Core -->
      <rect x="-3" y="-3" width="6" height="6"
            fill="#111"
            rx="0.5"/>

      <!-- CPU Pins on sides -->
      <g stroke="url(#circuitGradient)" stroke-width="0.8" opacity="0.8">
        <!-- Top pins -->
        <line x1="-7" y1="-10" x2="-7" y2="-13"/>
        <line x1="-3" y1="-10" x2="-3" y2="-13"/>
        <line x1="0" y1="-10" x2="0" y2="-13"/>
        <line x1="3" y1="-10" x2="3" y2="-13"/>
        <line x1="7" y1="-10" x2="7" y2="-13"/>

        <!-- Bottom pins -->
        <line x1="-7" y1="10" x2="-7" y2="13"/>
        <line x1="-3" y1="10" x2="-3" y2="13"/>
        <line x1="0" y1="10" x2="0" y2="13"/>
        <line x1="3" y1="10" x2="3" y2="13"/>
        <line x1="7" y1="10" x2="7" y2="13"/>

        <!-- Left pins -->
        <line x1="-10" y1="-7" x2="-13" y2="-7"/>
        <line x1="-10" y1="-3" x2="-13" y2="-3"/>
        <line x1="-10" y1="0" x2="-13" y2="0"/>
        <line x1="-10" y1="3" x2="-13" y2="3"/>
        <line x1="-10" y1="7" x2="-13" y2="7"/>

        <!-- Right pins -->
        <line x1="10" y1="-7" x2="13" y2="-7"/>
        <line x1="10" y1="-3" x2="13" y2="-3"/>
        <line x1="10" y1="0" x2="13" y2="0"/>
        <line x1="10" y1="3" x2="13" y2="3"/>
        <line x1="10" y1="7" x2="13" y2="7"/>
      </g>
    </g>

    <!-- Power/Speed Lines (animated look) -->
    <g stroke="url(#logoGradient)" stroke-width="1" opacity="0.5">
      <path d="M -22,-5 L -25,-5 M -22,0 L -25,0 M -22,5 L -25,5"/>
      <path d="M 22,-5 L 25,-5 M 22,0 L 25,0 M 22,5 L 25,5"/>
    </g>
  </g>
</svg>