<?xml version="1.0" encoding="UTF-8"?>
<svg xmlns="http://www.w3.org/2000/svg" width="50" height="50" viewBox="0 0 50 50">
  <defs>
    <!-- Main Gradient -->
    <linearGradient id="primaryGradient" x1="0%" y1="0%" x2="100%" y2="100%">
      <stop offset="0%" style="stop-color:#ff6b35;stop-opacity:1" />
      <stop offset="100%" style="stop-color:#ff4500;stop-opacity:1" />
    </linearGradient>

    <!-- Tech Blue Gradient -->
    <linearGradient id="techGradient" x1="0%" y1="0%" x2="100%" y2="100%">
      <stop offset="0%" style="stop-color:#00d4ff;stop-opacity:1" />
      <stop offset="100%" style="stop-color:#0066cc;stop-opacity:1" />
    </linearGradient>

    <!-- Glow Effect -->
    <filter id="softGlow">
      <feGaussianBlur stdDeviation="1.5" result="coloredBlur"/>
      <feMerge>
        <feMergeNode in="coloredBlur"/>
        <feMergeNode in="SourceGraphic"/>
      </feMerge>
    </filter>
  </defs>

  <!-- Background Circle -->
  <circle cx="25" cy="25" r="23"
          fill="#0a0a0a"
          stroke="url(#primaryGradient)"
          stroke-width="2"
          opacity="0.9"/>

  <!-- Inner Tech Ring -->
  <circle cx="25" cy="25" r="19"
          fill="none"
          stroke="#222"
          stroke-width="1"
          stroke-dasharray="2 3"
          opacity="0.5"/>

  <!-- PC Text in Modern Gaming Style -->
  <g transform="translate(25, 25)">
    <!-- Letter P -->
    <g transform="translate(-10, 0)">
      <path d="M -5,-10 L -5,10 M -5,-10 L 2,-10 Q 5,-10 5,-7 L 5,-3 Q 5,0 2,0 L -5,0"
            fill="none"
            stroke="url(#primaryGradient)"
            stroke-width="3"
            stroke-linecap="round"
            stroke-linejoin="round"
            filter="url(#softGlow)"/>
    </g>

    <!-- Letter C -->
    <g transform="translate(8, 0)">
      <path d="M 5,-7 Q 0,-10 -3,-7 L -3,7 Q 0,10 5,7"
            fill="none"
            stroke="url(#techGradient)"
            stroke-width="3"
            stroke-linecap="round"
            filter="url(#softGlow)"/>
    </g>

    <!-- Tech Accent Lines -->
    <g stroke="#ff6b35" stroke-width="1" opacity="0.3">
      <line x1="-18" y1="-15" x2="-15" y2="-15"/>
      <line x1="-18" y1="15" x2="-15" y2="15"/>
      <line x1="15" y1="-15" x2="18" y2="-15"/>
      <line x1="15" y1="15" x2="18" y2="15"/>
    </g>

    <!-- Center Power Dot -->
    <circle cx="0" cy="12" r="2"
            fill="url(#primaryGradient)"
            opacity="0.8"/>
  </g>

  <!-- Corner Accent Marks -->
  <g stroke="url(#primaryGradient)" stroke-width="1" opacity="0.4" fill="none">
    <path d="M 8,8 L 8,5 L 5,5"/>
    <path d="M 42,8 L 42,5 L 45,5"/>
    <path d="M 8,42 L 8,45 L 5,45"/>
    <path d="M 42,42 L 42,45 L 45,45"/>
  </g>
</svg>