<?xml version="1.0" encoding="UTF-8"?>
<svg xmlns="http://www.w3.org/2000/svg" width="50" height="50" viewBox="0 0 50 50">
  <defs>
    <linearGradient id="orangeGrad" x1="0%" y1="0%" x2="100%" y2="100%">
      <stop offset="0%" style="stop-color:#ff6b35"/>
      <stop offset="100%" style="stop-color:#ff4500"/>
    </linearGradient>
  </defs>

  <!-- Monitor/PC Screen -->
  <g transform="translate(25, 22)">
    <!-- Screen -->
    <rect x="-15" y="-12" width="30" height="20"
          fill="#0a0a0a"
          stroke="url(#orangeGrad)"
          stroke-width="2"
          rx="2"/>

    <!-- Screen Inner -->
    <rect x="-12" y="-9" width="24" height="14"
          fill="#111"
          stroke="#333"
          stroke-width="1"/>

    <!-- Power LED -->
    <circle cx="0" cy="7" r="1.5" fill="#00ff88"/>

    <!-- Stand -->
    <rect x="-2" y="8" width="4" height="6" fill="#333"/>
    <rect x="-6" y="14" width="12" height="2" fill="#333" rx="1"/>
  </g>

  <!-- Wrench overlapping (repair symbol) -->
  <g transform="translate(32, 32) rotate(-45)">
    <path d="M -2,-8 L -2,-4 L -4,-2 L -4,4 L -2,6 L 2,6 L 4,4 L 4,-2 L 2,-4 L 2,-8 L 0,-10 Z"
          fill="url(#orangeGrad)"
          opacity="0.9"/>
    <!-- Wrench Handle -->
    <rect x="-1" y="6" width="2" height="8" fill="url(#orangeGrad)" opacity="0.9"/>
  </g>

  <!-- Tech dots decoration -->
  <g fill="url(#orangeGrad)" opacity="0.5">
    <circle cx="8" cy="8" r="1"/>
    <circle cx="42" cy="8" r="1"/>
    <circle cx="8" cy="42" r="1"/>
    <circle cx="42" cy="42" r="1"/>
  </g>
</svg>