<?xml version="1.0" encoding="UTF-8"?>
<svg xmlns="http://www.w3.org/2000/svg" width="50" height="50" viewBox="0 0 50 50">
  <defs>
    <linearGradient id="brandGradient" x1="0%" y1="0%" x2="100%" y2="0%">
      <stop offset="0%" style="stop-color:#ff6b35"/>
      <stop offset="100%" style="stop-color:#ff4500"/>
    </linearGradient>
    <linearGradient id="techBlue" x1="0%" y1="0%" x2="0%" y2="100%">
      <stop offset="0%" style="stop-color:#00d4ff"/>
      <stop offset="100%" style="stop-color:#0099cc"/>
    </linearGradient>
  </defs>

  <!-- Graphics Card / GPU Icon - More recognizable for PC gaming -->
  <g transform="translate(25, 25)">
    <!-- Main Board -->
    <rect x="-18" y="-12" width="36" height="24"
          fill="#1a1a1a"
          stroke="url(#brandGradient)"
          stroke-width="2"
          rx="2"/>

    <!-- Heat Sink Fins -->
    <g fill="#2a2a2a" stroke="#444" stroke-width="0.5">
      <rect x="-14" y="-8" width="2" height="16"/>
      <rect x="-10" y="-8" width="2" height="16"/>
      <rect x="-6" y="-8" width="2" height="16"/>
      <rect x="-2" y="-8" width="2" height="16"/>
      <rect x="2" y="-8" width="2" height="16"/>
      <rect x="6" y="-8" width="2" height="16"/>
      <rect x="10" y="-8" width="2" height="16"/>
    </g>

    <!-- Fan Circle -->
    <circle cx="0" cy="0" r="7"
            fill="#111"
            stroke="url(#techBlue)"
            stroke-width="1"/>

    <!-- Fan Blades -->
    <g stroke="url(#brandGradient)" stroke-width="1.5" stroke-linecap="round">
      <path d="M 0,-5 L 0,-2 M 0,2 L 0,5"/>
      <path d="M -5,0 L -2,0 M 2,0 L 5,0"/>
      <path d="M -3.5,-3.5 L -1.4,-1.4 M 1.4,1.4 L 3.5,3.5"/>
      <path d="M 3.5,-3.5 L 1.4,-1.4 M -1.4,1.4 L -3.5,3.5"/>
    </g>

    <!-- Center Hub -->
    <circle cx="0" cy="0" r="2" fill="url(#brandGradient)"/>

    <!-- PCI Connector at bottom -->
    <rect x="-12" y="12" width="24" height="3"
          fill="url(#techBlue)"
          opacity="0.8"/>
  </g>
</svg>