<svg width="60" height="30" viewBox="0 0 60 30" xmlns="http://www.w3.org/2000/svg">
  <!-- Background -->
  <rect width="60" height="30" rx="4" fill="#000000" />
  
  <!-- Apple Logo -->
  <path d="M18,8 Q20,6 22,8 Q23,9 22,11 Q21,12 20,11 Q19,10 18,11 Q17,12 16,11 Q15,9 16,8 Q17,6 18,8 Z" fill="#ffffff" />
  <path d="M20,10 Q22,10 23,12 Q24,14 23,16 Q22,18 20,18 Q18,18 17,16 Q16,14 17,12 Q18,10 20,10 Z" fill="#ffffff" />
  
  <!-- Apple Pay Text -->
  <text x="30" y="18" font-family="Arial, sans-serif" font-size="8" fill="#ffffff">Pay</text>
</svg>