<svg width="400" height="250" viewBox="0 0 400 250" xmlns="http://www.w3.org/2000/svg">
  <defs>
    <linearGradient id="cpuGradient" x1="0%" y1="0%" x2="100%" y2="100%">
      <stop offset="0%" style="stop-color:#3a3a3a;stop-opacity:1" />
      <stop offset="100%" style="stop-color:#1a1a1a;stop-opacity:1" />
    </linearGradient>
  </defs>
  
  <!-- Background -->
  <rect width="400" height="250" fill="#0a0a0a" />
  
  <!-- CPU Package -->
  <rect x="150" y="75" width="100" height="100" rx="5" fill="url(#cpuGradient)" stroke="#ff6b35" stroke-width="2" />
  
  <!-- CPU Die -->
  <rect x="170" y="95" width="60" height="60" fill="#2a2a2a" stroke="#ff6b35" stroke-width="1" />
  <rect x="180" y="105" width="40" height="40" fill="#ff6b35" opacity="0.3" />
  
  <!-- Brand Text -->
  <text x="200" y="130" font-family="Arial, monospace" font-size="8" fill="#ff6b35" text-anchor="middle" font-weight="bold">AMD</text>
  <text x="200" y="140" font-family="Arial, monospace" font-size="6" fill="#ffffff" text-anchor="middle">RYZEN 9</text>
  
  <!-- CPU Pins/Contacts -->
  <g fill="#ff6b35" opacity="0.6">
    <!-- Top row -->
    <circle cx="155" cy="80" r="1" />
    <circle cx="160" cy="80" r="1" />
    <circle cx="165" cy="80" r="1" />
    <circle cx="170" cy="80" r="1" />
    <circle cx="175" cy="80" r="1" />
    <circle cx="180" cy="80" r="1" />
    <circle cx="185" cy="80" r="1" />
    <circle cx="190" cy="80" r="1" />
    <circle cx="195" cy="80" r="1" />
    <circle cx="200" cy="80" r="1" />
    <circle cx="205" cy="80" r="1" />
    <circle cx="210" cy="80" r="1" />
    <circle cx="215" cy="80" r="1" />
    <circle cx="220" cy="80" r="1" />
    <circle cx="225" cy="80" r="1" />
    <circle cx="230" cy="80" r="1" />
    <circle cx="235" cy="80" r="1" />
    <circle cx="240" cy="80" r="1" />
    <circle cx="245" cy="80" r="1" />
    
    <!-- Bottom row -->
    <circle cx="155" cy="170" r="1" />
    <circle cx="160" cy="170" r="1" />
    <circle cx="165" cy="170" r="1" />
    <circle cx="170" cy="170" r="1" />
    <circle cx="175" cy="170" r="1" />
    <circle cx="180" cy="170" r="1" />
    <circle cx="185" cy="170" r="1" />
    <circle cx="190" cy="170" r="1" />
    <circle cx="195" cy="170" r="1" />
    <circle cx="200" cy="170" r="1" />
    <circle cx="205" cy="170" r="1" />
    <circle cx="210" cy="170" r="1" />
    <circle cx="215" cy="170" r="1" />
    <circle cx="220" cy="170" r="1" />
    <circle cx="225" cy="170" r="1" />
    <circle cx="230" cy="170" r="1" />
    <circle cx="235" cy="170" r="1" />
    <circle cx="240" cy="170" r="1" />
    <circle cx="245" cy="170" r="1" />
    
    <!-- Left side -->
    <circle cx="155" cy="85" r="1" />
    <circle cx="155" cy="90" r="1" />
    <circle cx="155" cy="95" r="1" />
    <circle cx="155" cy="100" r="1" />
    <circle cx="155" cy="105" r="1" />
    <circle cx="155" cy="110" r="1" />
    <circle cx="155" cy="115" r="1" />
    <circle cx="155" cy="120" r="1" />
    <circle cx="155" cy="125" r="1" />
    <circle cx="155" cy="130" r="1" />
    <circle cx="155" cy="135" r="1" />
    <circle cx="155" cy="140" r="1" />
    <circle cx="155" cy="145" r="1" />
    <circle cx="155" cy="150" r="1" />
    <circle cx="155" cy="155" r="1" />
    <circle cx="155" cy="160" r="1" />
    <circle cx="155" cy="165" r="1" />
    
    <!-- Right side -->
    <circle cx="245" cy="85" r="1" />
    <circle cx="245" cy="90" r="1" />
    <circle cx="245" cy="95" r="1" />
    <circle cx="245" cy="100" r="1" />
    <circle cx="245" cy="105" r="1" />
    <circle cx="245" cy="110" r="1" />
    <circle cx="245" cy="115" r="1" />
    <circle cx="245" cy="120" r="1" />
    <circle cx="245" cy="125" r="1" />
    <circle cx="245" cy="130" r="1" />
    <circle cx="245" cy="135" r="1" />
    <circle cx="245" cy="140" r="1" />
    <circle cx="245" cy="145" r="1" />
    <circle cx="245" cy="150" r="1" />
    <circle cx="245" cy="155" r="1" />
    <circle cx="245" cy="160" r="1" />
    <circle cx="245" cy="165" r="1" />
  </g>
  
  <!-- Heat spreader -->
  <rect x="145" y="70" width="110" height="110" rx="5" fill="none" stroke="#ff6b35" stroke-width="1" opacity="0.5" />
</svg>